<svg width="573" height="414" viewBox="0 0 573 414" fill="none" xmlns="http://www.w3.org/2000/svg">
<rect x="3" y="3" width="567" height="408" rx="34" fill="#3C3939" stroke="url(#paint0_linear_1_47)" stroke-width="6"/>
<path d="M0 40C0 17.9086 17.9086 0 40 0H533C555.091 0 573 17.9086 573 40V131.884H0V40Z" fill="url(#paint1_linear_1_47)"/>
<ellipse cx="59.9776" cy="65.9418" rx="22.4916" ry="24.6565" fill="#595454"/>
<ellipse cx="59.9776" cy="65.9418" rx="22.4916" ry="24.6565" fill="#595454"/>
<ellipse cx="59.9776" cy="65.9418" rx="22.4916" ry="24.6565" fill="#595454"/>
<ellipse cx="59.9776" cy="65.9418" rx="22.4916" ry="24.6565" fill="#595454"/>
<ellipse cx="59.9776" cy="65.9418" rx="22.4916" ry="24.6565" fill="#595454"/>
<ellipse cx="179.397" cy="65.9418" rx="24.0981" ry="24.6565" fill="#595454"/>
<ellipse cx="179.397" cy="65.9418" rx="24.0981" ry="24.6565" fill="#595454"/>
<ellipse cx="179.397" cy="65.9418" rx="24.0981" ry="24.6565" fill="#595454"/>
<ellipse cx="179.397" cy="65.9418" rx="24.0981" ry="24.6565" fill="#595454"/>
<ellipse cx="179.397" cy="65.9418" rx="24.0981" ry="24.6565" fill="#595454"/>
<ellipse cx="118.884" cy="65.9418" rx="21.4206" ry="24.6565" fill="#595454"/>
<ellipse cx="118.884" cy="65.9418" rx="21.4206" ry="24.6565" fill="#595454"/>
<ellipse cx="118.884" cy="65.9418" rx="21.4206" ry="24.6565" fill="#595454"/>
<ellipse cx="118.884" cy="65.9418" rx="21.4206" ry="24.6565" fill="#595454"/>
<ellipse cx="118.884" cy="65.9418" rx="21.4206" ry="24.6565" fill="#595454"/>
<path d="M87.9091 261.545V254.273L146.455 224.455V236.091L101.545 257.727L101.909 257V258.818L101.545 258.091L146.455 279.727V291.364L87.9091 261.545ZM170.648 303V209.909H202.102C209.405 209.909 215.375 211.227 220.011 213.864C224.678 216.47 228.133 220 230.375 224.455C232.617 228.909 233.739 233.879 233.739 239.364C233.739 244.848 232.617 249.833 230.375 254.318C228.163 258.803 224.739 262.379 220.102 265.045C215.466 267.682 209.527 269 202.284 269H179.739V259H201.92C206.92 259 210.936 258.136 213.966 256.409C216.996 254.682 219.193 252.348 220.557 249.409C221.951 246.439 222.648 243.091 222.648 239.364C222.648 235.636 221.951 232.303 220.557 229.364C219.193 226.424 216.981 224.121 213.92 222.455C210.86 220.758 206.799 219.909 201.739 219.909H181.92V303H170.648ZM251.898 303V209.909H263.17V251.364H312.807V209.909H324.08V303H312.807V261.364H263.17V303H251.898ZM346.648 303V209.909H378.102C385.405 209.909 391.375 211.227 396.011 213.864C400.678 216.47 404.133 220 406.375 224.455C408.617 228.909 409.739 233.879 409.739 239.364C409.739 244.848 408.617 249.833 406.375 254.318C404.163 258.803 400.739 262.379 396.102 265.045C391.466 267.682 385.527 269 378.284 269H355.739V259H377.92C382.92 259 386.936 258.136 389.966 256.409C392.996 254.682 395.193 252.348 396.557 249.409C397.951 246.439 398.648 243.091 398.648 239.364C398.648 235.636 397.951 232.303 396.557 229.364C395.193 226.424 392.981 224.121 389.92 222.455C386.86 220.758 382.799 219.909 377.739 219.909H357.92V303H346.648ZM488.08 261.545L429.534 291.364V279.727L474.443 258.091L474.08 258.818V257L474.443 257.727L429.534 236.091V224.455L488.08 254.273V261.545Z" fill="url(#paint2_linear_1_47)"/>
<defs>
<linearGradient id="paint0_linear_1_47" x1="286.5" y1="0" x2="286.5" y2="414" gradientUnits="userSpaceOnUse">
<stop offset="0.28" stop-color="#FFBC5E"/>
<stop offset="1" stop-color="#FFDB6E"/>
</linearGradient>
<linearGradient id="paint1_linear_1_47" x1="0" y1="65.9418" x2="573" y2="65.9418" gradientUnits="userSpaceOnUse">
<stop offset="0.26" stop-color="#FFDB6E"/>
<stop offset="1" stop-color="#FFBC5E"/>
</linearGradient>
<linearGradient id="paint2_linear_1_47" x1="293" y1="179" x2="293" y2="378" gradientUnits="userSpaceOnUse">
<stop offset="0.26" stop-color="#FFDB6E"/>
<stop offset="1" stop-color="#FFBC5E"/>
</linearGradient>
</defs>
</svg>
