<svg id="Capa_1" enable-background="new 0 0 512 512" height="512" viewBox="0 0 512 512" width="512" xmlns="http://www.w3.org/2000/svg"><g><g><g><path d="m5.127 141.341-5.127 9.235v266.984c0 17.618 14.282 31.9 31.9 31.9h448.2c17.618 0 31.9-14.282 31.9-31.9v-266.984l-5.127-9.235z" fill="#ddeafb"/></g></g><g><g><path d="m459.765 141.341v223.983c0 17.618-14.282 31.9-31.9 31.9h-427.865v20.335c0 17.618 14.282 31.9 31.9 31.9h448.2c17.618 0 31.9-14.282 31.9-31.9v-266.983l-5.127-9.235z" fill="#cbe2ff"/></g></g><g><g><path d="m480.1 62.54h-448.2c-17.618 0-31.9 14.282-31.9 31.9v56.136h512v-56.136c0-17.618-14.282-31.9-31.9-31.9z" fill="#698ed5"/></g></g><g><g><path d="m480.1 62.54h-20.335v88.036h52.235v-56.136c0-17.618-14.282-31.9-31.9-31.9z" fill="#4073c8"/></g></g><g><g><g><circle cx="57.783" cy="106.558" fill="#dd636e" r="14.312"/></g></g><g><g><circle cx="101.809" cy="106.558" fill="#ffe07d" r="14.312"/></g></g><g><g><circle cx="145.835" cy="106.558" fill="#86f1a7" r="14.312"/></g></g></g><g><g><g><path d="m89.146 343.682c-2.224 0-4.432-.956-5.96-2.804l-46.497-56.26c-2.361-2.857-2.361-6.988 0-9.845l46.497-56.26c2.718-3.289 7.589-3.752 10.878-1.033 3.289 2.718 3.752 7.589 1.033 10.878l-42.43 51.337 42.43 51.337c2.718 3.29 2.256 8.16-1.033 10.878-1.44 1.191-3.185 1.772-4.918 1.772z" fill="#595454"/></g><g><path d="m426.463 343.682c-1.733 0-3.478-.581-4.919-1.771-3.289-2.718-3.751-7.589-1.033-10.878l42.43-51.337-42.43-51.337c-2.718-3.29-2.256-8.16 1.033-10.878 3.29-2.717 8.159-2.256 10.878 1.033l46.497 56.26c2.361 2.857 2.361 6.988 0 9.845l-46.497 56.26c-1.528 1.847-3.735 2.803-5.959 2.803z" fill="#595454"/></g></g><g fill="#595454"><path d="m288.737 333.43c4.268 0 7.726-3.459 7.726-7.726v-91.353c0-4.268-3.459-7.726-7.726-7.726s-7.726 3.459-7.726 7.726v36.383h-47.766v-36.383c0-4.268-3.459-7.726-7.726-7.726s-7.726 3.459-7.726 7.726v91.353c0 4.268 3.459 7.726 7.726 7.726s7.726-3.459 7.726-7.726v-39.517h47.766v39.517c0 4.268 3.459 7.726 7.726 7.726z"/><path d="m142.827 325.704v-31.997c5.86-.032 13.664-.07 17.71-.07 18.754 0 34.011-15.031 34.011-33.506s-15.258-33.506-34.011-33.506h-25.437c-4.152-.082-7.799 3.581-7.726 7.726v91.353c0 4.268 3.459 7.726 7.726 7.726s7.727-3.458 7.727-7.726zm17.71-83.627c10.059 0 18.558 8.268 18.558 18.053 0 9.786-8.499 18.053-18.558 18.053-4.025 0-11.723.037-17.576.069-.032-6.016-.093-29.914-.111-36.176h17.687z"/><path d="m330.897 232.113c-.217.726-.32 1.48-.332 2.238v91.353c0 4.268 3.459 7.726 7.726 7.726s7.726-3.459 7.726-7.726v-31.997c5.86-.032 13.664-.07 17.71-.07 18.754 0 34.011-15.031 34.011-33.506s-15.258-33.506-34.011-33.506h-25.437c-3.329-.041-6.464 2.292-7.393 5.488zm32.831 9.964c10.059 0 18.558 8.268 18.558 18.053 0 9.786-8.499 18.053-18.558 18.053-4.025 0-11.723.037-17.576.069-.032-6.016-.093-29.914-.111-36.176h17.687z"/></g></g></g></svg>